# xmcd
#
# Track frame offsets:
#	150
#	22962
#	47435
#	70040
#	86972
#	106952
#	128045
#	152215
#	176777
#	195560
#	220065
#	239515
#	266147
#	290677
#	308450
#	323087
#
# Disc length: 4549 seconds
#
# Revision: 0
# Processed by: cddbd v1.4PL0 Copyright (c) Steve Scherf et al.
# Submitted via: EasyCDDAExtractor 5.0.5.1
#
DISCID=e111c310
DTITLE=Lara Fabian - En toute intimité
DYEAR=2003
DGENRE=Blues
TTITLE0=J'y crois encore
TTITLE1=Comme ils disent
TTITLE2=Caruso
TTITLE3=S'en aller
TTITLE4=Voir un ami pleurer
TTITLE5=Je t'aime
TTITLE6=Je suis mon coeur
TTITLE7=Addio del passato
TTITLE8=Mistral gagnant
TTITLE9=Si tu m'aimes-Parce que tu pars
TTITLE10=Tu es mon autre
TTITLE11=Medley Starmania
TTITLE12=Calling You
TTITLE13=Tout
TTITLE14=Immortelle
TTITLE15=Bambina
EXTD=
EXTT0=
EXTT1=
EXTT2=
EXTT3=
EXTT4=
EXTT5=
EXTT6=
EXTT7=
EXTT8=
EXTT9=
EXTT10=
EXTT11=
EXTT12=
EXTT13=
EXTT14=
EXTT15=
PLAYORDER=
